<?xml version="1.0" encoding="UTF-8" standalone="no"?>
<!DOCTYPE svg PUBLIC "-//W3C//DTD SVG 1.1//EN"
 "http://www.w3.org/Graphics/SVG/1.1/DTD/svg11.dtd">
<!-- Generated by graphviz version 2.38.0 (20140413.2041)
 -->
<!-- Title: G Pages: 1 -->
<svg width="138pt" height="410pt"
 viewBox="0.00 0.00 138.00 410.00" xmlns="http://www.w3.org/2000/svg" xmlns:xlink="http://www.w3.org/1999/xlink">
<g id="graph0" class="graph" transform="scale(1 1) rotate(0) translate(4 406)">
<title>G</title>
<polygon fill="white" stroke="none" points="-4,4 -4,-406 134,-406 134,4 -4,4"/>
<!-- 2124120178472 -->
<g id="node1" class="node"><title>2124120178472</title>
<polygon fill="none" stroke="black" points="13,-292.5 13,-328.5 117,-328.5 117,-292.5 13,-292.5"/>
<text text-anchor="middle" x="65" y="-306.8" font-family="Times New Roman,serif" font-size="14.00">dense_1: Dense</text>
</g>
<!-- 2124120311120 -->
<g id="node2" class="node"><title>2124120311120</title>
<polygon fill="none" stroke="black" points="0,-219.5 0,-255.5 130,-255.5 130,-219.5 0,-219.5"/>
<text text-anchor="middle" x="65" y="-233.8" font-family="Times New Roman,serif" font-size="14.00">dropout_1: Dropout</text>
</g>
<!-- 2124120178472&#45;&gt;2124120311120 -->
<g id="edge2" class="edge"><title>2124120178472&#45;&gt;2124120311120</title>
<path fill="none" stroke="black" d="M65,-292.313C65,-284.289 65,-274.547 65,-265.569"/>
<polygon fill="black" stroke="black" points="68.5001,-265.529 65,-255.529 61.5001,-265.529 68.5001,-265.529"/>
</g>
<!-- 2124120311064 -->
<g id="node3" class="node"><title>2124120311064</title>
<polygon fill="none" stroke="black" points="13,-146.5 13,-182.5 117,-182.5 117,-146.5 13,-146.5"/>
<text text-anchor="middle" x="65" y="-160.8" font-family="Times New Roman,serif" font-size="14.00">dense_2: Dense</text>
</g>
<!-- 2124120311120&#45;&gt;2124120311064 -->
<g id="edge3" class="edge"><title>2124120311120&#45;&gt;2124120311064</title>
<path fill="none" stroke="black" d="M65,-219.313C65,-211.289 65,-201.547 65,-192.569"/>
<polygon fill="black" stroke="black" points="68.5001,-192.529 65,-182.529 61.5001,-192.529 68.5001,-192.529"/>
</g>
<!-- 2124154347024 -->
<g id="node4" class="node"><title>2124154347024</title>
<polygon fill="none" stroke="black" points="0,-73.5 0,-109.5 130,-109.5 130,-73.5 0,-73.5"/>
<text text-anchor="middle" x="65" y="-87.8" font-family="Times New Roman,serif" font-size="14.00">dropout_2: Dropout</text>
</g>
<!-- 2124120311064&#45;&gt;2124154347024 -->
<g id="edge4" class="edge"><title>2124120311064&#45;&gt;2124154347024</title>
<path fill="none" stroke="black" d="M65,-146.313C65,-138.289 65,-128.547 65,-119.569"/>
<polygon fill="black" stroke="black" points="68.5001,-119.529 65,-109.529 61.5001,-119.529 68.5001,-119.529"/>
</g>
<!-- 2124154347136 -->
<g id="node5" class="node"><title>2124154347136</title>
<polygon fill="none" stroke="black" points="13,-0.5 13,-36.5 117,-36.5 117,-0.5 13,-0.5"/>
<text text-anchor="middle" x="65" y="-14.8" font-family="Times New Roman,serif" font-size="14.00">dense_3: Dense</text>
</g>
<!-- 2124154347024&#45;&gt;2124154347136 -->
<g id="edge5" class="edge"><title>2124154347024&#45;&gt;2124154347136</title>
<path fill="none" stroke="black" d="M65,-73.3129C65,-65.2895 65,-55.5475 65,-46.5691"/>
<polygon fill="black" stroke="black" points="68.5001,-46.5288 65,-36.5288 61.5001,-46.5289 68.5001,-46.5288"/>
</g>
<!-- 2124120309944 -->
<g id="node6" class="node"><title>2124120309944</title>
<polygon fill="none" stroke="black" points="13,-365.5 13,-401.5 117,-401.5 117,-365.5 13,-365.5"/>
<text text-anchor="middle" x="65" y="-379.8" font-family="Times New Roman,serif" font-size="14.00">2124120309944</text>
</g>
<!-- 2124120309944&#45;&gt;2124120178472 -->
<g id="edge1" class="edge"><title>2124120309944&#45;&gt;2124120178472</title>
<path fill="none" stroke="black" d="M65,-365.313C65,-357.289 65,-347.547 65,-338.569"/>
<polygon fill="black" stroke="black" points="68.5001,-338.529 65,-328.529 61.5001,-338.529 68.5001,-338.529"/>
</g>
</g>
</svg>
